<svg width="105" height="30" viewBox="0 0 105 30" fill="none" xmlns="http://www.w3.org/2000/svg">
<g id="logo">
<g id="Clip path group">
<mask id="mask0_2006_53" style="mask-type:luminance" maskUnits="userSpaceOnUse" x="0" y="0" width="105" height="30">
<g id="a">
<path id="Vector" d="M0 0H104.229V30H0V0Z" fill="white"/>
</g>
</mask>
<g mask="url(#mask0_2006_53)">
<g id="Group">
<g id="Mask group">
<mask id="mask1_2006_53" style="mask-type:luminance" maskUnits="userSpaceOnUse" x="0" y="0" width="29" height="30">
<g id="Group_2">
<path id="Vector_2" d="M28.714 0H0V29.995H28.714V0Z" fill="white"/>
</g>
</mask>
<g mask="url(#mask1_2006_53)">
<g id="Group_3">
<path id="Vector_3" d="M1.805 1.28999L18.403 0.0689936C20.441 -0.106006 20.966 0.0119936 22.247 0.941994L27.545 4.66599C28.419 5.30599 28.711 5.48099 28.711 6.17899V26.603C28.711 27.883 28.244 28.64 26.614 28.756L7.34 29.919C6.116 29.977 5.534 29.803 4.893 28.988L0.99 23.925C0.29 22.994 0 22.297 0 21.481V3.32599C0 2.27999 0.466 1.40599 1.805 1.29099V1.28999Z" fill="white"/>
<path id="Vector_4" fill-rule="evenodd" clip-rule="evenodd" d="M18.403 0.0682307L1.805 1.29123C0.466 1.40623 0 2.28023 0 3.32623V21.4812C0 22.2972 0.29 22.9942 0.99 23.9252L4.892 28.9882C5.532 29.8032 6.115 29.9782 7.339 29.9182L26.614 28.7552C28.244 28.6392 28.711 27.8822 28.711 26.6022V6.17823C28.711 5.51623 28.449 5.32523 27.677 4.76223C27.633 4.72994 27.589 4.6976 27.545 4.66523L22.247 0.941231C20.966 0.0112306 20.44 -0.106769 18.403 0.0682307ZM7.776 5.84323C6.202 5.94923 5.845 5.97323 4.951 5.24723L2.678 3.44323C2.446 3.21023 2.563 2.91923 3.145 2.86223L19.102 1.69823C20.441 1.58123 21.14 2.04823 21.664 2.45423L24.401 4.43323C24.517 4.49123 24.808 4.84023 24.459 4.84023L7.979 5.83023L7.776 5.84323ZM5.94 26.4272V9.08723C5.94 8.33123 6.173 7.98223 6.872 7.92323L25.798 6.81823C26.44 6.76023 26.731 7.16823 26.731 7.92323V25.1462C26.731 25.9042 26.614 26.5442 25.565 26.6022L7.455 27.6502C6.405 27.7082 5.94 27.3602 5.94 26.4272ZM23.82 10.0172C23.936 10.5422 23.82 11.0662 23.294 11.1252L22.422 11.2992V24.0992C21.664 24.5072 20.965 24.7392 20.383 24.7392C19.451 24.7392 19.218 24.4492 18.519 23.5762L12.812 14.6162V23.2862L14.618 23.6932C14.618 23.6932 14.618 24.7402 13.16 24.7402L9.143 24.9732C9.026 24.7402 9.143 24.1582 9.551 24.0422L10.599 23.7522V12.2872L9.143 12.1702C9.027 11.6462 9.317 10.8902 10.133 10.8322L14.443 10.5422L20.383 19.6192V11.5892L18.869 11.4152C18.752 10.7742 19.218 10.3082 19.8 10.2512L23.82 10.0172Z" fill="black"/>
</g>
</g>
</g>
<path id="Vector_5" d="M50.995 7.02V23.23H48.408L40.739 12.14H40.605V23.23H37.692V7.02H40.304L47.956 18.107H48.106V7.021H50.996L50.995 7.02ZM58.71 23.466C57.523 23.466 56.494 23.205 55.623 22.682C54.7535 22.1607 54.0528 21.3996 53.605 20.49C53.131 19.551 52.893 18.454 52.893 17.198C52.893 15.942 53.13 14.842 53.605 13.898C54.08 12.954 54.753 12.22 55.623 11.698C56.493 11.176 57.523 10.914 58.71 10.914C59.892 10.914 60.918 11.176 61.788 11.698C62.658 12.22 63.332 12.954 63.806 13.898C64.286 14.842 64.526 15.942 64.526 17.198C64.526 18.454 64.286 19.551 63.806 20.49C63.3584 21.4 62.6577 22.1614 61.788 22.683C60.918 23.205 59.892 23.466 58.71 23.466ZM58.718 21.186C59.372 21.186 59.915 21.01 60.348 20.656C60.781 20.298 61.105 19.818 61.321 19.216C61.538 18.609 61.646 17.934 61.646 17.19C61.646 16.446 61.538 15.771 61.321 15.164C61.105 14.557 60.781 14.074 60.348 13.716C59.915 13.352 59.372 13.17 58.718 13.17C58.058 13.17 57.509 13.352 57.072 13.716C56.634 14.075 56.307 14.557 56.09 15.164C55.88 15.771 55.774 16.446 55.774 17.19C55.774 17.934 55.879 18.61 56.09 19.216C56.307 19.818 56.634 20.298 57.072 20.656C57.51 21.01 58.058 21.186 58.718 21.186ZM72.33 11.074V13.274H65.366V11.074H72.33ZM67.09 8.16H69.932V19.58C69.932 19.965 69.99 20.26 70.106 20.467C70.227 20.672 70.386 20.812 70.581 20.886C70.776 20.96 70.995 20.996 71.238 20.996C71.4022 20.9974 71.5661 20.9843 71.728 20.957C71.876 20.931 71.992 20.907 72.077 20.886L72.551 23.11C72.3382 23.1791 72.1219 23.2372 71.903 23.284C71.623 23.347 71.28 23.384 70.873 23.394C70.161 23.416 69.518 23.308 68.943 23.07C68.3892 22.8403 67.9157 22.4521 67.582 21.954C67.249 21.448 67.086 20.812 67.091 20.047V8.16H67.09ZM74.073 23.229V11.073H76.923V23.229H74.073ZM75.506 9.339C75.052 9.339 74.664 9.189 74.342 8.889C74.1888 8.75135 74.0665 8.58275 73.9832 8.39434C73.9 8.20592 73.8576 8.00199 73.859 7.796C73.859 7.369 74.02 7.005 74.342 6.704C74.6542 6.4039 75.072 6.23897 75.505 6.245C75.959 6.245 76.347 6.398 76.669 6.705C76.996 7.005 77.159 7.369 77.159 7.796C77.159 8.218 76.996 8.582 76.669 8.888C76.347 9.189 75.959 9.34 75.506 9.34V9.339ZM84.496 23.466C83.309 23.466 82.28 23.205 81.409 22.682C80.5394 22.1607 79.8387 21.3996 79.391 20.49C78.917 19.551 78.679 18.454 78.679 17.198C78.679 15.942 78.917 14.842 79.391 13.898C79.866 12.954 80.539 12.22 81.409 11.698C82.28 11.176 83.309 10.914 84.496 10.914C85.678 10.914 86.704 11.176 87.574 11.698C88.445 12.22 89.118 12.954 89.593 13.898C90.073 14.842 90.313 15.942 90.313 17.198C90.313 18.454 90.073 19.551 89.593 20.49C89.1452 21.4002 88.4441 22.1617 87.574 22.683C86.704 23.205 85.678 23.466 84.496 23.466ZM84.504 21.186C85.158 21.186 85.701 21.01 86.134 20.656C86.567 20.298 86.891 19.818 87.108 19.216C87.324 18.609 87.432 17.934 87.432 17.19C87.432 16.446 87.324 15.771 87.108 15.164C86.891 14.557 86.567 14.074 86.134 13.716C85.701 13.352 85.158 13.17 84.504 13.17C83.844 13.17 83.296 13.352 82.858 13.716C82.42 14.075 82.093 14.557 81.876 15.164C81.666 15.771 81.56 16.446 81.56 17.19C81.56 17.934 81.665 18.61 81.876 19.216C82.093 19.818 82.42 20.298 82.858 20.656C83.296 21.01 83.844 21.186 84.504 21.186ZM94.91 16.098V23.228H92.062V11.074H94.784V13.131H94.927C95.1962 12.4684 95.6631 11.9048 96.264 11.517C96.881 11.116 97.644 10.915 98.552 10.915C99.385 10.915 100.113 11.095 100.736 11.454C101.367 11.8161 101.874 12.3592 102.192 13.013C102.54 13.693 102.714 14.519 102.714 15.49V23.23H99.874V15.925C99.874 15.112 99.662 14.477 99.24 14.018C98.817 13.554 98.234 13.321 97.49 13.321C96.99 13.321 96.544 13.432 96.153 13.654C95.763 13.87 95.457 14.186 95.235 14.604C95.019 15.014 94.91 15.514 94.91 16.099V16.098Z" fill="black"/>
</g>
</g>
</g>
</g>
</svg>
